<?xml version="1.0" encoding="UTF-8" standalone="no"?>
<!-- Created with Inkscape (http://www.inkscape.org/) -->

<svg
   xmlns:dc="http://purl.org/dc/elements/1.1/"
   xmlns:cc="http://creativecommons.org/ns#"
   xmlns:rdf="http://www.w3.org/1999/02/22-rdf-syntax-ns#"
   xmlns:svg="http://www.w3.org/2000/svg"
   xmlns="http://www.w3.org/2000/svg"
   xmlns:sodipodi="http://sodipodi.sourceforge.net/DTD/sodipodi-0.dtd"
   xmlns:inkscape="http://www.inkscape.org/namespaces/inkscape"
   width="150mm"
   height="40mm"
   viewBox="0 0 531.49606 141.73228"
   id="svg2"
   version="1.1"
   inkscape:version="0.91 r13725"
   sodipodi:docname="Ocho_con.svg">
  <defs
     id="defs4" />
  <sodipodi:namedview
     id="base"
     pagecolor="#ffffff"
     bordercolor="#666666"
     borderopacity="1.0"
     inkscape:pageopacity="0.0"
     inkscape:pageshadow="2"
     inkscape:zoom="0.7"
     inkscape:cx="742.38715"
     inkscape:cy="273.53316"
     inkscape:document-units="px"
     inkscape:current-layer="layer1"
     showgrid="true"
     inkscape:window-width="1920"
     inkscape:window-height="1019"
     inkscape:window-x="1024"
     inkscape:window-y="0"
     inkscape:window-maximized="1"
     units="mm">
    <inkscape:grid
       type="xygrid"
       id="grid3437" />
  </sodipodi:namedview>
  <metadata
     id="metadata7">
    <rdf:RDF>
      <cc:Work
         rdf:about="">
        <dc:format>image/svg+xml</dc:format>
        <dc:type
           rdf:resource="http://purl.org/dc/dcmitype/StillImage" />
        <dc:title></dc:title>
      </cc:Work>
    </rdf:RDF>
  </metadata>
  <g
     inkscape:label="Capa 1"
     inkscape:groupmode="layer"
     id="layer1"
     transform="translate(0,-910.62997)">
    <g
       id="g4379"
       transform="matrix(0.75328735,0,0,0.75328735,-673.88478,453.76825)">
      <path
         sodipodi:nodetypes="zczcz"
         inkscape:connector-curvature="0"
         id="path3435"
         d="m 324.03823,97.157329 c -64.75367,0 -135.28191,-9.62859 -135.28191,-9.62859 0,0 70.39372,-9.72625 135.21465,-9.72625 64.82093,0 144.58606,9.3782 144.58606,9.3782 0,0 -79.76513,9.97664 -144.5188,9.97664 z"
         style="fill:#000000" />
      <path
         sodipodi:nodetypes="sccsss"
         inkscape:connector-curvature="0"
         id="path3435-3-6"
         d="m 305.80317,55.846589 -16.0448,24.32633 c 2.16973,0.52374 4.515,1.05275 6.49719,1.53123 0.11135,-0.44111 7.30425,-11.42123 15.28363,-23.40709 26.15749,-39.291266 29.35461,-45.844952 25.47601,-46.781197 -1.68939,-0.4078 -21.71323,29.929129 -31.21204,44.330757 z"
         style="fill:#000000" />
      <circle
         r="6.1884718"
         cy="87.612183"
         cx="317.62946"
         id="path3471"
         style="fill:#ffffff;fill-opacity:1;fill-rule:evenodd;stroke:#000000;stroke-width:0.30000001;stroke-linecap:butt;stroke-linejoin:miter;stroke-miterlimit:4;stroke-dasharray:none;stroke-opacity:1" />
      <path
         sodipodi:nodetypes="sccsss"
         inkscape:connector-curvature="0"
         id="path3435-3-6-3-2"
         d="m 305.80348,119.28156 -16.0448,-24.326331 c 2.16973,-0.52374 4.515,-1.05275 6.49719,-1.53123 0.11135,0.44111 7.30425,11.421231 15.28363,23.407091 26.15749,39.29127 29.35461,45.84495 25.47601,46.7812 -1.68939,0.4078 -21.71323,-29.92913 -31.21204,-44.33076 z"
         style="fill:#000000" />
    </g>
    <g
       id="g4437"
       transform="matrix(0.75328735,0,0,0.75328735,-594.05878,459.05622)">
      <path
         sodipodi:nodetypes="zczcz"
         inkscape:connector-curvature="0"
         id="path3435-2"
         d="m 313.0008,301.20816 c -121.66829,0 -160.912,-9.62859 -160.912,-9.62859 0,0 43.45922,-9.72625 160.832,-9.72625 117.37279,0 171.97889,9.3782 171.97889,9.3782 0,0 -50.23059,9.97664 -171.89889,9.97664 z"
         style="fill:#000000" />
      <path
         sodipodi:nodetypes="sccsss"
         inkscape:connector-curvature="0"
         id="path3435-3-6-7"
         d="m 269.13565,259.89742 -16.0448,24.32633 c 2.16973,0.52374 4.515,1.05275 6.49719,1.53123 0.11135,-0.44111 7.30425,-11.42123 15.28363,-23.40709 26.15749,-39.29127 29.35461,-45.84495 25.47601,-46.7812 -1.68939,-0.4078 -21.71323,29.92913 -31.21204,44.33076 z"
         style="fill:#000000" />
      <circle
         r="6.1884718"
         cy="291.66302"
         cx="280.96194"
         id="path3471-0"
         style="fill:#ffffff;fill-opacity:1;fill-rule:evenodd;stroke:#000000;stroke-width:0.30000001;stroke-linecap:butt;stroke-linejoin:miter;stroke-miterlimit:4;stroke-dasharray:none;stroke-opacity:1" />
      <path
         sodipodi:nodetypes="sccsss"
         inkscape:connector-curvature="0"
         id="path3435-3-6-3-2-9"
         d="m 269.13596,323.33239 -16.0448,-24.32633 c 2.16973,-0.52374 4.515,-1.05275 6.49719,-1.53123 0.11135,0.44111 7.30425,11.42123 15.28363,23.40709 26.15749,39.29127 29.35461,45.84495 25.47601,46.7812 -1.68939,0.4078 -21.71323,-29.92913 -31.21204,-44.33076 z"
         style="fill:#000000" />
      <path
         sodipodi:nodetypes="sccsss"
         inkscape:connector-curvature="0"
         id="path3435-3-6-7-3"
         d="m 331.27851,259.89742 -16.0448,24.32633 c 2.16973,0.52374 4.515,1.05275 6.49719,1.53123 0.11135,-0.44111 7.30425,-11.42123 15.28363,-23.40709 26.15749,-39.29127 29.35461,-45.84495 25.47601,-46.7812 -1.68939,-0.4078 -21.71323,29.92913 -31.21204,44.33076 z"
         style="fill:#000000" />
      <circle
         r="6.1884718"
         cy="291.66302"
         cx="343.1048"
         id="path3471-0-6"
         style="fill:#ffffff;fill-opacity:1;fill-rule:evenodd;stroke:#000000;stroke-width:0.30000001;stroke-linecap:butt;stroke-linejoin:miter;stroke-miterlimit:4;stroke-dasharray:none;stroke-opacity:1" />
      <path
         sodipodi:nodetypes="sccsss"
         inkscape:connector-curvature="0"
         id="path3435-3-6-3-2-9-0"
         d="m 331.27882,323.33238 -16.0448,-24.32632 c 2.16973,-0.52374 4.515,-1.05275 6.49719,-1.53123 0.11135,0.44111 7.30425,11.42123 15.28363,23.40708 26.15749,39.29127 29.35461,45.84495 25.47601,46.7812 -1.68939,0.4078 -21.71323,-29.92913 -31.21204,-44.33076 z"
         style="fill:#000000" />
    </g>
    <g
       id="g4489"
       transform="matrix(0.75328735,0,0,0.75328735,-30.381957,454.99568)">
      <path
         sodipodi:nodetypes="zczcz"
         inkscape:connector-curvature="0"
         id="path3435-2-2"
         d="m 175.12263,302.92391 c -121.66829,0 -160.912,-9.62859 -160.912,-9.62859 0,0 43.45922,-9.72625 160.832,-9.72625 117.37279,0 171.97889,9.3782 171.97889,9.3782 0,0 -50.23059,9.97664 -171.89889,9.97664 z"
         style="fill:#000000" />
      <path
         sodipodi:nodetypes="sccsss"
         inkscape:connector-curvature="0"
         id="path3435-3-6-7-6"
         d="m 131.25748,261.61317 -16.0448,24.32633 c 2.16973,0.52374 4.515,1.05275 6.49719,1.53123 0.11135,-0.44111 7.30425,-11.42123 15.28363,-23.40709 26.15749,-39.29127 29.35461,-45.84495 25.47601,-46.7812 -1.68939,-0.4078 -21.71323,29.92913 -31.21204,44.33076 z"
         style="fill:#000000" />
      <circle
         r="6.1884718"
         cy="293.37878"
         cx="143.08377"
         id="path3471-0-1"
         style="fill:#ffffff;fill-opacity:1;fill-rule:evenodd;stroke:#000000;stroke-width:0.30000001;stroke-linecap:butt;stroke-linejoin:miter;stroke-miterlimit:4;stroke-dasharray:none;stroke-opacity:1" />
      <circle
         r="6.1884718"
         cy="293.37878"
         cx="205.22662"
         id="path3471-0-6-9"
         style="fill:#ffffff;fill-opacity:1;fill-rule:evenodd;stroke:#000000;stroke-width:0.30000001;stroke-linecap:butt;stroke-linejoin:miter;stroke-miterlimit:4;stroke-dasharray:none;stroke-opacity:1" />
      <path
         sodipodi:nodetypes="sccsss"
         inkscape:connector-curvature="0"
         id="path3435-3-6-3-2-9-0-2"
         d="m 193.40065,325.04813 -16.0448,-24.32632 c 2.16973,-0.52374 4.515,-1.05275 6.49719,-1.53123 0.11135,0.44111 7.30425,11.42123 15.28363,23.40708 26.15749,39.29127 29.35461,45.84495 25.47601,46.7812 -1.68939,0.4078 -21.71323,-29.92913 -31.21204,-44.33076 z"
         style="fill:#000000" />
    </g>
    <g
       id="g4585"
       transform="matrix(0.75328735,0,0,0.75328735,-477.90818,590.44218)">
      <path
         sodipodi:nodetypes="zczcz"
         inkscape:connector-curvature="0"
         id="path3435-2-2-2"
         d="m 1156.2802,121.59897 c -121.6683,0 -160.91197,-9.62859 -160.91197,-9.62859 0,0 43.45927,-9.72625 160.83197,-9.72625 117.3728,0 171.9789,9.3782 171.9789,9.3782 0,0 -50.2306,9.97664 -171.8989,9.97664 z"
         style="fill:#000000" />
      <path
         sodipodi:nodetypes="sccsss"
         inkscape:connector-curvature="0"
         id="path3435-3-6-7-6-3"
         d="m 1112.4151,80.28823 -16.0448,24.32633 c 2.1697,0.52374 4.515,1.05275 6.4972,1.53123 0.1113,-0.44111 7.3042,-11.42123 15.2836,-23.40709 26.1575,-39.29127 29.3546,-45.84495 25.476,-46.7812 -1.6894,-0.4078 -21.7132,29.92913 -31.212,44.33076 z"
         style="fill:#000000" />
      <circle
         r="6.1884718"
         cy="112.05384"
         cx="1124.2413"
         id="path3471-0-1-7"
         style="fill:#ffffff;fill-opacity:1;fill-rule:evenodd;stroke:#000000;stroke-width:0.30000001;stroke-linecap:butt;stroke-linejoin:miter;stroke-miterlimit:4;stroke-dasharray:none;stroke-opacity:1" />
      <circle
         r="6.1884718"
         cy="112.05384"
         cx="1186.3843"
         id="path3471-0-6-9-5"
         style="fill:#ffffff;fill-opacity:1;fill-rule:evenodd;stroke:#000000;stroke-width:0.30000001;stroke-linecap:butt;stroke-linejoin:miter;stroke-miterlimit:4;stroke-dasharray:none;stroke-opacity:1" />
      <path
         sodipodi:nodetypes="sccsss"
         inkscape:connector-curvature="0"
         id="path3435-3-6-3-2-9-0-2-9"
         d="m 1174.5583,143.72319 -16.0448,-24.32632 c 2.1697,-0.52374 4.515,-1.05275 6.4971,-1.53123 0.1114,0.44111 7.3043,11.42123 15.2837,23.40708 26.1575,39.29127 29.3546,45.84495 25.476,46.7812 -1.6894,0.4078 -21.7133,-29.92913 -31.2121,-44.33076 z"
         style="fill:#000000" />
      <circle
         r="6.1884718"
         cy="112.05384"
         cx="1124.2413"
         id="path3471-0-1-7-2"
         style="fill:#ffffff;fill-opacity:1;fill-rule:evenodd;stroke:#000000;stroke-width:0.30000001;stroke-linecap:butt;stroke-linejoin:miter;stroke-miterlimit:4;stroke-dasharray:none;stroke-opacity:1" />
      <circle
         r="6.1884718"
         cy="112.05384"
         cx="1124.2413"
         id="path3471-0-1-7-28"
         style="fill:#ffffff;fill-opacity:1;fill-rule:evenodd;stroke:#000000;stroke-width:0.30000001;stroke-linecap:butt;stroke-linejoin:miter;stroke-miterlimit:4;stroke-dasharray:none;stroke-opacity:1" />
      <circle
         r="4.7091007"
         cy="112.05383"
         cx="1222.0985"
         id="path3471-0-1-7-28-9"
         style="fill:#ffe32f;fill-opacity:1;fill-rule:evenodd;stroke:#000000;stroke-width:0.2282842;stroke-linecap:butt;stroke-linejoin:miter;stroke-miterlimit:4;stroke-dasharray:none;stroke-opacity:1" />
    </g>
    <g
       id="g4862"
       transform="matrix(0.75328735,0,0,0.75328735,-574.45058,591.20308)">
      <path
         sodipodi:nodetypes="zczcz"
         inkscape:connector-curvature="0"
         id="path3435-2-8"
         d="m 254.79422,331.5743 c -206.489098,0 -232.300819,-9.62859 -232.300819,-9.62859 0,0 25.580744,-9.72625 232.185329,-9.72625 206.60458,0 248.27755,9.3782 248.27755,9.3782 0,0 -41.67297,9.97664 -248.16206,9.97664 z"
         style="fill:#000000" />
      <path
         sodipodi:nodetypes="sccsss"
         inkscape:connector-curvature="0"
         id="path3435-3-6-7-4"
         d="m 143.48805,289.75848 -16.0448,24.32633 c 2.16973,0.52374 4.515,1.05275 6.49719,1.53123 0.11135,-0.44111 7.30425,-11.42123 15.28363,-23.40709 26.15749,-39.29127 29.35461,-45.84495 25.47601,-46.7812 -1.68939,-0.4078 -21.71323,29.92913 -31.21204,44.33076 z"
         style="fill:#000000" />
      <circle
         r="6.1884718"
         cy="321.52411"
         cx="155.31435"
         id="path3471-0-5"
         style="fill:#ffffff;fill-opacity:1;fill-rule:evenodd;stroke:#000000;stroke-width:0.30000001;stroke-linecap:butt;stroke-linejoin:miter;stroke-miterlimit:4;stroke-dasharray:none;stroke-opacity:1" />
      <path
         sodipodi:nodetypes="sccsss"
         inkscape:connector-curvature="0"
         id="path3435-3-6-3-2-9-03"
         d="m 143.48836,353.19345 -16.0448,-24.32633 c 2.16973,-0.52374 4.515,-1.05275 6.49719,-1.53123 0.11135,0.44111 7.30425,11.42123 15.28363,23.40709 26.15749,39.29127 29.35461,45.84495 25.47601,46.7812 -1.68939,0.4078 -21.71323,-29.92913 -31.21204,-44.33076 z"
         style="fill:#000000" />
      <path
         sodipodi:nodetypes="sccsss"
         inkscape:connector-curvature="0"
         id="path3435-3-6-7-3-6"
         d="m 205.63091,289.75848 -16.0448,24.32633 c 2.16973,0.52374 4.515,1.05275 6.49719,1.53123 0.11135,-0.44111 7.30425,-11.42123 15.28363,-23.40709 26.15749,-39.29127 29.35461,-45.84495 25.47601,-46.7812 -1.68939,-0.4078 -21.71323,29.92913 -31.21204,44.33076 z"
         style="fill:#000000" />
      <circle
         r="6.1884718"
         cy="321.52411"
         cx="217.4572"
         id="path3471-0-6-1"
         style="fill:#ffffff;fill-opacity:1;fill-rule:evenodd;stroke:#000000;stroke-width:0.30000001;stroke-linecap:butt;stroke-linejoin:miter;stroke-miterlimit:4;stroke-dasharray:none;stroke-opacity:1" />
      <path
         sodipodi:nodetypes="sccsss"
         inkscape:connector-curvature="0"
         id="path3435-3-6-3-2-9-0-0"
         d="m 205.63122,353.19344 -16.0448,-24.32632 c 2.16973,-0.52374 4.515,-1.05275 6.49719,-1.53123 0.11135,0.44111 7.30425,11.42123 15.28363,23.40708 26.15749,39.29127 29.35461,45.84495 25.47601,46.7812 -1.68939,0.4078 -21.71323,-29.92913 -31.21204,-44.33076 z"
         style="fill:#000000" />
      <path
         sodipodi:nodetypes="sccsss"
         inkscape:connector-curvature="0"
         id="path3435-3-6-7-4-6"
         d="m 263.48805,289.40134 -16.0448,24.32633 c 2.16973,0.52374 4.515,1.05275 6.49719,1.53123 0.11135,-0.44111 7.30425,-11.42123 15.28363,-23.40709 26.15749,-39.29127 29.35461,-45.84495 25.47601,-46.7812 -1.68939,-0.4078 -21.71323,29.92913 -31.21204,44.33076 z"
         style="fill:#000000" />
      <circle
         r="6.1884718"
         cy="321.16696"
         cx="275.31433"
         id="path3471-0-5-9"
         style="fill:#ffffff;fill-opacity:1;fill-rule:evenodd;stroke:#000000;stroke-width:0.30000001;stroke-linecap:butt;stroke-linejoin:miter;stroke-miterlimit:4;stroke-dasharray:none;stroke-opacity:1" />
      <path
         sodipodi:nodetypes="sccsss"
         inkscape:connector-curvature="0"
         id="path3435-3-6-3-2-9-03-3"
         d="m 263.48836,352.8363 -16.0448,-24.32632 c 2.16973,-0.52374 4.515,-1.05275 6.49719,-1.53123 0.11135,0.44111 7.30425,11.42123 15.28363,23.40708 26.15749,39.29127 29.35461,45.84495 25.47601,46.7812 -1.68939,0.4078 -21.71323,-29.92913 -31.21204,-44.33076 z"
         style="fill:#000000" />
      <path
         sodipodi:nodetypes="sccsss"
         inkscape:connector-curvature="0"
         id="path3435-3-6-7-3-6-7"
         d="m 325.63091,289.40134 -16.0448,24.32633 c 2.16973,0.52374 4.515,1.05275 6.49719,1.53123 0.11135,-0.44111 7.30425,-11.42123 15.28363,-23.40709 26.15749,-39.29127 29.35461,-45.84495 25.47601,-46.7812 -1.68939,-0.4078 -21.71323,29.92913 -31.21204,44.33076 z"
         style="fill:#000000" />
      <circle
         r="6.1884718"
         cy="321.16696"
         cx="337.45718"
         id="path3471-0-6-1-4"
         style="fill:#ffffff;fill-opacity:1;fill-rule:evenodd;stroke:#000000;stroke-width:0.30000001;stroke-linecap:butt;stroke-linejoin:miter;stroke-miterlimit:4;stroke-dasharray:none;stroke-opacity:1" />
      <path
         sodipodi:nodetypes="sccsss"
         inkscape:connector-curvature="0"
         id="path3435-3-6-3-2-9-0-0-5"
         d="m 325.63122,352.83629 -16.0448,-24.32631 c 2.16973,-0.52374 4.515,-1.05275 6.49719,-1.53123 0.11135,0.44111 7.30425,11.42123 15.28363,23.40707 26.15749,39.29127 29.35461,45.84495 25.47601,46.7812 -1.68939,0.4078 -21.71323,-29.92913 -31.21204,-44.33076 z"
         style="fill:#000000" />
    </g>
    <g
       id="g4961"
       transform="matrix(0.75328735,0,0,0.75328735,-574.45058,591.20308)">
      <path
         sodipodi:nodetypes="zczcz"
         inkscape:connector-curvature="0"
         id="path3435-2-8-5"
         d="m 804.79422,328.71715 c -206.4891,0 -232.30082,-9.62859 -232.30082,-9.62859 0,0 25.58075,-9.72625 232.18533,-9.72625 206.60457,0 248.27757,9.3782 248.27757,9.3782 0,0 -41.673,9.97664 -248.16208,9.97664 z"
         style="fill:#000000" />
      <path
         sodipodi:nodetypes="sccsss"
         inkscape:connector-curvature="0"
         id="path3435-3-6-7-4-4"
         d="m 693.48805,286.90133 -16.0448,24.32633 c 2.16973,0.52374 4.515,1.05275 6.49719,1.53123 0.11135,-0.44111 7.30425,-11.42123 15.28363,-23.40709 26.15749,-39.29127 29.35461,-45.84495 25.47601,-46.7812 -1.68939,-0.4078 -21.71323,29.92913 -31.21204,44.33076 z"
         style="fill:#000000" />
      <circle
         r="6.1884718"
         cy="318.66696"
         cx="705.31433"
         id="path3471-0-5-7"
         style="fill:#ffffff;fill-opacity:1;fill-rule:evenodd;stroke:#000000;stroke-width:0.30000001;stroke-linecap:butt;stroke-linejoin:miter;stroke-miterlimit:4;stroke-dasharray:none;stroke-opacity:1" />
      <circle
         r="6.1884718"
         cy="318.66696"
         cx="767.45721"
         id="path3471-0-6-1-3"
         style="fill:#ffffff;fill-opacity:1;fill-rule:evenodd;stroke:#000000;stroke-width:0.30000001;stroke-linecap:butt;stroke-linejoin:miter;stroke-miterlimit:4;stroke-dasharray:none;stroke-opacity:1" />
      <path
         sodipodi:nodetypes="sccsss"
         inkscape:connector-curvature="0"
         id="path3435-3-6-3-2-9-0-0-0"
         d="m 755.63122,350.33629 -16.0448,-24.32632 c 2.16973,-0.52374 4.515,-1.05275 6.49719,-1.53123 0.11135,0.44111 7.30425,11.42123 15.28363,23.40708 26.15749,39.29127 29.35461,45.84495 25.47601,46.7812 -1.68939,0.4078 -21.71323,-29.92913 -31.21204,-44.33076 z"
         style="fill:#000000" />
      <path
         sodipodi:nodetypes="sccsss"
         inkscape:connector-curvature="0"
         id="path3435-3-6-7-4-6-7"
         d="m 813.48805,286.54419 -16.0448,24.32633 c 2.16973,0.52374 4.515,1.05275 6.49719,1.53123 0.11135,-0.44111 7.30425,-11.42123 15.28363,-23.40709 26.15749,-39.29127 29.35461,-45.84495 25.47601,-46.7812 -1.68939,-0.4078 -21.71323,29.92913 -31.21204,44.33076 z"
         style="fill:#000000" />
      <circle
         r="6.1884718"
         cy="318.30981"
         cx="825.31433"
         id="path3471-0-5-9-8"
         style="fill:#ffffff;fill-opacity:1;fill-rule:evenodd;stroke:#000000;stroke-width:0.30000001;stroke-linecap:butt;stroke-linejoin:miter;stroke-miterlimit:4;stroke-dasharray:none;stroke-opacity:1" />
      <circle
         r="6.1884718"
         cy="318.30981"
         cx="887.45715"
         id="path3471-0-6-1-4-8"
         style="fill:#ffffff;fill-opacity:1;fill-rule:evenodd;stroke:#000000;stroke-width:0.30000001;stroke-linecap:butt;stroke-linejoin:miter;stroke-miterlimit:4;stroke-dasharray:none;stroke-opacity:1" />
      <path
         sodipodi:nodetypes="sccsss"
         inkscape:connector-curvature="0"
         id="path3435-3-6-3-2-9-0-0-5-4"
         d="m 875.63122,349.97914 -16.0448,-24.32631 c 2.16973,-0.52374 4.515,-1.05275 6.49719,-1.53123 0.11135,0.44111 7.30425,11.42123 15.28363,23.40707 26.15749,39.29127 29.35461,45.84495 25.47601,46.7812 -1.68939,0.4078 -21.71323,-29.92913 -31.21204,-44.33076 z"
         style="fill:#000000" />
    </g>
    <g
       id="g5382"
       transform="matrix(0.75328735,0,0,0.75328735,-535.05468,589.18277)">
      <path
         sodipodi:nodetypes="zczcz"
         inkscape:connector-curvature="0"
         id="path3435-2-8-1"
         d="m 1303.3656,327.28858 c -206.4891,0 -232.3008,-9.62859 -232.3008,-9.62859 0,0 25.5807,-9.72625 232.1853,-9.72625 206.6046,0 248.2776,9.3782 248.2776,9.3782 0,0 -41.673,9.97664 -248.1621,9.97664 z"
         style="fill:#000000" />
      <path
         sodipodi:nodetypes="sccsss"
         inkscape:connector-curvature="0"
         id="path3435-3-6-7-4-49"
         d="m 1198.0595,285.47276 -16.0448,24.32633 c 2.1697,0.52374 4.515,1.05275 6.4971,1.53123 0.1114,-0.44111 7.3043,-11.42123 15.2837,-23.40709 26.1575,-39.29127 29.3546,-45.84495 25.476,-46.7812 -1.6894,-0.4078 -21.7132,29.92913 -31.2121,44.33076 z"
         style="fill:#000000" />
      <circle
         r="6.1884718"
         cy="317.2384"
         cx="1209.8857"
         id="path3471-0-5-2"
         style="fill:#ffffff;fill-opacity:1;fill-rule:evenodd;stroke:#000000;stroke-width:0.30000001;stroke-linecap:butt;stroke-linejoin:miter;stroke-miterlimit:4;stroke-dasharray:none;stroke-opacity:1" />
      <path
         sodipodi:nodetypes="sccsss"
         inkscape:connector-curvature="0"
         id="path3435-3-6-3-2-9-03-0"
         d="M 1198.0598,348.90773 1182.015,324.5814 c 2.1697,-0.52374 4.515,-1.05275 6.4972,-1.53123 0.1113,0.44111 7.3042,11.42123 15.2836,23.40709 26.1575,39.29127 29.3546,45.84495 25.476,46.7812 -1.6894,0.4078 -21.7132,-29.92913 -31.212,-44.33076 z"
         style="fill:#000000" />
      <path
         sodipodi:nodetypes="sccsss"
         inkscape:connector-curvature="0"
         id="path3435-3-6-7-3-6-6"
         d="m 1260.2023,285.47276 -16.0448,24.32633 c 2.1697,0.52374 4.515,1.05275 6.4972,1.53123 0.1114,-0.44111 7.3043,-11.42123 15.2836,-23.40709 26.1575,-39.29127 29.3546,-45.84495 25.476,-46.7812 -1.6893,-0.4078 -21.7132,29.92913 -31.212,44.33076 z"
         style="fill:#000000" />
      <circle
         r="6.1884718"
         cy="317.2384"
         cx="1272.0286"
         id="path3471-0-6-1-8"
         style="fill:#ffffff;fill-opacity:1;fill-rule:evenodd;stroke:#000000;stroke-width:0.30000001;stroke-linecap:butt;stroke-linejoin:miter;stroke-miterlimit:4;stroke-dasharray:none;stroke-opacity:1" />
      <path
         sodipodi:nodetypes="sccsss"
         inkscape:connector-curvature="0"
         id="path3435-3-6-3-2-9-0-0-9"
         d="m 1260.2026,348.90772 -16.0448,-24.32632 c 2.1698,-0.52374 4.515,-1.05275 6.4972,-1.53123 0.1114,0.44111 7.3043,11.42123 15.2836,23.40708 26.1575,39.29127 29.3547,45.84495 25.4761,46.7812 -1.6894,0.4078 -21.7133,-29.92913 -31.2121,-44.33076 z"
         style="fill:#000000" />
      <path
         sodipodi:nodetypes="sccsss"
         inkscape:connector-curvature="0"
         id="path3435-3-6-7-4-6-2"
         d="m 1318.0595,285.11562 -16.0448,24.32633 c 2.1697,0.52374 4.515,1.05275 6.4971,1.53123 0.1114,-0.44111 7.3043,-11.42123 15.2837,-23.40709 26.1575,-39.29127 29.3546,-45.84495 25.476,-46.7812 -1.6894,-0.4078 -21.7132,29.92913 -31.2121,44.33076 z"
         style="fill:#000000" />
      <circle
         r="6.1884718"
         cy="316.88126"
         cx="1329.8857"
         id="path3471-0-5-9-6"
         style="fill:#ffffff;fill-opacity:1;fill-rule:evenodd;stroke:#000000;stroke-width:0.30000001;stroke-linecap:butt;stroke-linejoin:miter;stroke-miterlimit:4;stroke-dasharray:none;stroke-opacity:1" />
      <path
         sodipodi:nodetypes="sccsss"
         inkscape:connector-curvature="0"
         id="path3435-3-6-3-2-9-03-3-6"
         d="m 1318.0598,348.55058 -16.0448,-24.32632 c 2.1697,-0.52374 4.515,-1.05275 6.4972,-1.53123 0.1113,0.44111 7.3042,11.42123 15.2836,23.40708 26.1575,39.29127 29.3546,45.84495 25.476,46.7812 -1.6894,0.4078 -21.7132,-29.92913 -31.2121,-44.33076 z"
         style="fill:#000000" />
      <path
         sodipodi:nodetypes="sccsss"
         inkscape:connector-curvature="0"
         id="path3435-3-6-7-3-6-7-4"
         d="m 1380.2023,285.11562 -16.0448,24.32633 c 2.1697,0.52374 4.515,1.05275 6.4972,1.53123 0.1114,-0.44111 7.3043,-11.42123 15.2836,-23.40709 26.1575,-39.29127 29.3546,-45.84495 25.476,-46.7812 -1.6893,-0.4078 -21.7132,29.92913 -31.212,44.33076 z"
         style="fill:#000000" />
      <circle
         r="6.1884718"
         cy="316.88126"
         cx="1392.0286"
         id="path3471-0-6-1-4-9"
         style="fill:#ffffff;fill-opacity:1;fill-rule:evenodd;stroke:#000000;stroke-width:0.30000001;stroke-linecap:butt;stroke-linejoin:miter;stroke-miterlimit:4;stroke-dasharray:none;stroke-opacity:1" />
      <path
         sodipodi:nodetypes="sccsss"
         inkscape:connector-curvature="0"
         id="path3435-3-6-3-2-9-0-0-5-5"
         d="m 1380.2026,348.55057 -16.0448,-24.32631 c 2.1698,-0.52374 4.515,-1.05275 6.4972,-1.53123 0.1114,0.44111 7.3043,11.42123 15.2836,23.40707 26.1575,39.29127 29.3547,45.84495 25.4761,46.7812 -1.6894,0.4078 -21.7133,-29.92913 -31.2121,-44.33076 z"
         style="fill:#000000" />
      <circle
         style="fill:#ffe32f;fill-opacity:1;fill-rule:evenodd;stroke:#000000;stroke-width:0.2282842;stroke-linecap:butt;stroke-linejoin:miter;stroke-miterlimit:4;stroke-dasharray:none;stroke-opacity:1"
         id="path3471-0-1-7-28-9-6-9"
         cx="1153.1931"
         cy="317.0451"
         r="4.7091007" />
    </g>
    <g
       id="g5370"
       transform="matrix(0.75328735,0,0,0.75328735,-548.60508,589.07402)">
      <path
         sodipodi:nodetypes="zczcz"
         inkscape:connector-curvature="0"
         id="path3435-2-8-5-4"
         d="m 1853.3656,324.43143 c -206.4891,0 -232.3008,-9.62859 -232.3008,-9.62859 0,0 25.5808,-9.72625 232.1853,-9.72625 206.6046,0 248.2776,9.3782 248.2776,9.3782 0,0 -41.673,9.97664 -248.1621,9.97664 z"
         style="fill:#000000" />
      <path
         sodipodi:nodetypes="sccsss"
         inkscape:connector-curvature="0"
         id="path3435-3-6-7-4-4-8"
         d="m 1752.0595,282.61561 -16.0448,24.32633 c 2.1697,0.52374 4.515,1.05275 6.4971,1.53123 0.1114,-0.44111 7.3043,-11.42123 15.2837,-23.40709 26.1575,-39.29127 29.3546,-45.84495 25.476,-46.7812 -1.6894,-0.4078 -21.7132,29.92913 -31.2121,44.33076 z"
         style="fill:#000000" />
      <circle
         r="6.1884718"
         cy="314.38126"
         cx="1763.8857"
         id="path3471-0-5-7-7"
         style="fill:#ffffff;fill-opacity:1;fill-rule:evenodd;stroke:#000000;stroke-width:0.30000001;stroke-linecap:butt;stroke-linejoin:miter;stroke-miterlimit:4;stroke-dasharray:none;stroke-opacity:1" />
      <circle
         r="6.1884718"
         cy="314.38126"
         cx="1826.0286"
         id="path3471-0-6-1-3-1"
         style="fill:#ffffff;fill-opacity:1;fill-rule:evenodd;stroke:#000000;stroke-width:0.30000001;stroke-linecap:butt;stroke-linejoin:miter;stroke-miterlimit:4;stroke-dasharray:none;stroke-opacity:1" />
      <path
         sodipodi:nodetypes="sccsss"
         inkscape:connector-curvature="0"
         id="path3435-3-6-3-2-9-0-0-0-7"
         d="m 1814.2026,346.05057 -16.0448,-24.32632 c 2.1698,-0.52374 4.515,-1.05275 6.4972,-1.53123 0.1114,0.44111 7.3043,11.42123 15.2836,23.40708 26.1575,39.29127 29.3547,45.84495 25.4761,46.7812 -1.6894,0.4078 -21.7133,-29.92913 -31.2121,-44.33076 z"
         style="fill:#000000" />
      <path
         sodipodi:nodetypes="sccsss"
         inkscape:connector-curvature="0"
         id="path3435-3-6-7-4-6-7-2"
         d="m 1872.0595,282.25847 -16.0448,24.32633 c 2.1697,0.52374 4.515,1.05275 6.4971,1.53123 0.1114,-0.44111 7.3043,-11.42123 15.2837,-23.40709 26.1575,-39.29127 29.3546,-45.84495 25.476,-46.7812 -1.6894,-0.4078 -21.7132,29.92913 -31.2121,44.33076 z"
         style="fill:#000000" />
      <circle
         r="6.1884718"
         cy="314.02411"
         cx="1883.8857"
         id="path3471-0-5-9-8-7"
         style="fill:#ffffff;fill-opacity:1;fill-rule:evenodd;stroke:#000000;stroke-width:0.30000001;stroke-linecap:butt;stroke-linejoin:miter;stroke-miterlimit:4;stroke-dasharray:none;stroke-opacity:1" />
      <circle
         r="6.1884718"
         cy="314.02411"
         cx="1946.0286"
         id="path3471-0-6-1-4-8-2"
         style="fill:#ffffff;fill-opacity:1;fill-rule:evenodd;stroke:#000000;stroke-width:0.30000001;stroke-linecap:butt;stroke-linejoin:miter;stroke-miterlimit:4;stroke-dasharray:none;stroke-opacity:1" />
      <path
         sodipodi:nodetypes="sccsss"
         inkscape:connector-curvature="0"
         id="path3435-3-6-3-2-9-0-0-5-4-2"
         d="m 1934.2026,345.69342 -16.0448,-24.32631 c 2.1698,-0.52374 4.515,-1.05275 6.4972,-1.53123 0.1114,0.44111 7.3043,11.42123 15.2836,23.40707 26.1575,39.29127 29.3547,45.84495 25.4761,46.7812 -1.6894,0.4078 -21.7133,-29.92913 -31.2121,-44.33076 z"
         style="fill:#000000" />
      <circle
         style="fill:#ffe32f;fill-opacity:1;fill-rule:evenodd;stroke:#000000;stroke-width:0.2282842;stroke-linecap:butt;stroke-linejoin:miter;stroke-miterlimit:4;stroke-dasharray:none;stroke-opacity:1"
         id="path3471-0-1-7-28-9-6-9-8"
         cx="1705.3359"
         cy="314.90225"
         r="4.7091007" />
    </g>
    <g
       id="g5745"
       transform="matrix(0.75328735,0,0,0.75328735,-574.45058,591.20308)">
      <path
         sodipodi:nodetypes="zczcz"
         inkscape:connector-curvature="0"
         id="path3435-2-8-8"
         d="m 346.54849,531.5743 c -281.699054,0 -316.912232,-9.62859 -316.912232,-9.62859 0,0 34.898072,-9.72625 316.754682,-9.72625 281.8566,0 338.7082,9.3782 338.7082,9.3782 0,0 -56.8516,9.97664 -338.55065,9.97664 z"
         style="fill:#000000" />
      <path
         sodipodi:nodetypes="sccsss"
         inkscape:connector-curvature="0"
         id="path3435-3-6-7-4-1"
         d="m 158.20791,490.31676 -16.25315,24.63265 c 2.19791,0.53034 4.57363,1.06601 6.58156,1.55051 0.1128,-0.44666 7.3991,-11.56505 15.48209,-23.70184 26.49716,-39.78603 29.73579,-46.42224 25.80683,-47.37028 -1.71133,-0.41293 -21.99519,30.30601 -31.61734,44.88899 z"
         style="fill:#000000" />
      <circle
         r="6.1884718"
         cy="521.52411"
         cx="170.4572"
         id="path3471-0-5-0"
         style="fill:#ffffff;fill-opacity:1;fill-rule:evenodd;stroke:#000000;stroke-width:0.30000001;stroke-linecap:butt;stroke-linejoin:miter;stroke-miterlimit:4;stroke-dasharray:none;stroke-opacity:1" />
      <path
         sodipodi:nodetypes="sccsss"
         inkscape:connector-curvature="0"
         id="path3435-3-6-3-2-9-03-30"
         d="m 158.63122,553.19345 -16.0448,-24.32633 c 2.16973,-0.52374 4.515,-1.05275 6.49719,-1.53123 0.11135,0.44111 7.30425,11.42123 15.28363,23.40709 26.15749,39.29127 29.35461,45.84495 25.47601,46.7812 -1.68939,0.4078 -21.71323,-29.92913 -31.21204,-44.33076 z"
         style="fill:#000000" />
      <path
         sodipodi:nodetypes="sccsss"
         inkscape:connector-curvature="0"
         id="path3435-3-6-7-3-6-4"
         d="m 220.77377,489.75848 -16.0448,24.32633 c 2.16973,0.52374 4.515,1.05275 6.49719,1.53123 0.11135,-0.44111 7.30425,-11.42123 15.28363,-23.40709 26.15749,-39.29127 29.35461,-45.84495 25.47601,-46.7812 -1.68939,-0.4078 -21.71323,29.92913 -31.21204,44.33076 z"
         style="fill:#000000" />
      <circle
         r="6.1884718"
         cy="521.52411"
         cx="232.60005"
         id="path3471-0-6-1-44"
         style="fill:#ffffff;fill-opacity:1;fill-rule:evenodd;stroke:#000000;stroke-width:0.30000001;stroke-linecap:butt;stroke-linejoin:miter;stroke-miterlimit:4;stroke-dasharray:none;stroke-opacity:1" />
      <path
         sodipodi:nodetypes="sccsss"
         inkscape:connector-curvature="0"
         id="path3435-3-6-3-2-9-0-0-4"
         d="m 220.77408,553.19344 -16.0448,-24.32632 c 2.16973,-0.52374 4.515,-1.05275 6.49719,-1.53123 0.11135,0.44111 7.30425,11.42123 15.28363,23.40708 26.15749,39.29127 29.35461,45.84495 25.47601,46.7812 -1.68939,0.4078 -21.71323,-29.92913 -31.21204,-44.33076 z"
         style="fill:#000000" />
      <path
         sodipodi:nodetypes="sccsss"
         inkscape:connector-curvature="0"
         id="path3435-3-6-7-4-6-76"
         d="m 278.63091,489.40134 -16.0448,24.32633 c 2.16973,0.52374 4.515,1.05275 6.49719,1.53123 0.11135,-0.44111 7.30425,-11.42123 15.28363,-23.40709 26.15749,-39.29127 29.35461,-45.84495 25.47601,-46.7812 -1.68939,-0.4078 -21.71323,29.92913 -31.21204,44.33076 z"
         style="fill:#000000" />
      <circle
         r="6.1884718"
         cy="521.16699"
         cx="290.45718"
         id="path3471-0-5-9-3"
         style="fill:#ffffff;fill-opacity:1;fill-rule:evenodd;stroke:#000000;stroke-width:0.30000001;stroke-linecap:butt;stroke-linejoin:miter;stroke-miterlimit:4;stroke-dasharray:none;stroke-opacity:1" />
      <path
         sodipodi:nodetypes="sccsss"
         inkscape:connector-curvature="0"
         id="path3435-3-6-3-2-9-03-3-1"
         d="m 278.63122,552.8363 -16.0448,-24.32632 c 2.16973,-0.52374 4.515,-1.05275 6.49719,-1.53123 0.11135,0.44111 7.30425,11.42123 15.28363,23.40708 26.15749,39.29127 29.35461,45.84495 25.47601,46.7812 -1.68939,0.4078 -21.71323,-29.92913 -31.21204,-44.33076 z"
         style="fill:#000000" />
      <path
         sodipodi:nodetypes="sccsss"
         inkscape:connector-curvature="0"
         id="path3435-3-6-7-3-6-7-7"
         d="m 340.77377,489.40134 -16.0448,24.32633 c 2.16973,0.52374 4.515,1.05275 6.49719,1.53123 0.11135,-0.44111 7.30425,-11.42123 15.28363,-23.40709 26.15749,-39.29127 29.35461,-45.84495 25.47601,-46.7812 -1.68939,-0.4078 -21.71323,29.92913 -31.21204,44.33076 z"
         style="fill:#000000" />
      <circle
         r="6.1884718"
         cy="521.16699"
         cx="352.60004"
         id="path3471-0-6-1-4-5"
         style="fill:#ffffff;fill-opacity:1;fill-rule:evenodd;stroke:#000000;stroke-width:0.30000001;stroke-linecap:butt;stroke-linejoin:miter;stroke-miterlimit:4;stroke-dasharray:none;stroke-opacity:1" />
      <path
         sodipodi:nodetypes="sccsss"
         inkscape:connector-curvature="0"
         id="path3435-3-6-3-2-9-0-0-5-9"
         d="m 340.77408,552.83629 -16.0448,-24.32631 c 2.16973,-0.52374 4.515,-1.05275 6.49719,-1.53123 0.11135,0.44111 7.30425,11.42123 15.28363,23.40707 26.15749,39.29127 29.35461,45.84495 25.47601,46.7812 -1.68939,0.4078 -21.71323,-29.92913 -31.21204,-44.33076 z"
         style="fill:#000000" />
      <circle
         style="fill:#ffe32f;fill-opacity:1;fill-rule:evenodd;stroke:#000000;stroke-width:0.2282842;stroke-linecap:butt;stroke-linejoin:miter;stroke-miterlimit:4;stroke-dasharray:none;stroke-opacity:1"
         id="path3471-0-1-7-28-9-6-6"
         cx="110.16795"
         cy="522.25177"
         r="4.7091007" />
      <path
         sodipodi:nodetypes="sccsss"
         inkscape:connector-curvature="0"
         id="path3435-3-6-7-4-1-2"
         d="m 396.63091,489.75848 -16.0448,24.32633 c 2.16973,0.52374 4.515,1.05275 6.49719,1.53123 0.11135,-0.44111 7.30425,-11.42123 15.28363,-23.40709 26.15749,-39.29127 29.35461,-45.84495 25.47601,-46.7812 -1.68939,-0.4078 -21.71323,29.92913 -31.21204,44.33076 z"
         style="fill:#000000" />
      <circle
         r="6.1884718"
         cy="521.52411"
         cx="408.45721"
         id="path3471-0-5-0-1"
         style="fill:#ffffff;fill-opacity:1;fill-rule:evenodd;stroke:#000000;stroke-width:0.30000001;stroke-linecap:butt;stroke-linejoin:miter;stroke-miterlimit:4;stroke-dasharray:none;stroke-opacity:1" />
      <path
         sodipodi:nodetypes="sccsss"
         inkscape:connector-curvature="0"
         id="path3435-3-6-3-2-9-03-30-7"
         d="m 396.63122,553.19344 -16.0448,-24.32632 c 2.16973,-0.52374 4.515,-1.05275 6.49719,-1.53123 0.11135,0.44111 7.30425,11.42123 15.28363,23.40708 26.15749,39.29127 29.35461,45.84495 25.47601,46.7812 -1.68939,0.4078 -21.71323,-29.92913 -31.21204,-44.33076 z"
         style="fill:#000000" />
      <path
         sodipodi:nodetypes="sccsss"
         inkscape:connector-curvature="0"
         id="path3435-3-6-7-3-6-4-8"
         d="m 458.77377,489.75848 -16.0448,24.32633 c 2.16973,0.52374 4.515,1.05275 6.49719,1.53123 0.11135,-0.44111 7.30425,-11.42123 15.28363,-23.40709 26.15749,-39.29127 29.35461,-45.84495 25.47601,-46.7812 -1.68939,-0.4078 -21.71323,29.92913 -31.21204,44.33076 z"
         style="fill:#000000" />
      <circle
         r="6.1884718"
         cy="521.52411"
         cx="470.60004"
         id="path3471-0-6-1-44-5"
         style="fill:#ffffff;fill-opacity:1;fill-rule:evenodd;stroke:#000000;stroke-width:0.30000001;stroke-linecap:butt;stroke-linejoin:miter;stroke-miterlimit:4;stroke-dasharray:none;stroke-opacity:1" />
      <path
         sodipodi:nodetypes="sccsss"
         inkscape:connector-curvature="0"
         id="path3435-3-6-3-2-9-0-0-4-7"
         d="m 458.77408,553.19343 -16.0448,-24.32631 c 2.16973,-0.52374 4.515,-1.05275 6.49719,-1.53123 0.11135,0.44111 7.30425,11.42123 15.28363,23.40707 26.15749,39.29127 29.35461,45.84495 25.47601,46.7812 -1.68939,0.4078 -21.71323,-29.92913 -31.21204,-44.33076 z"
         style="fill:#000000" />
      <path
         sodipodi:nodetypes="sccsss"
         inkscape:connector-curvature="0"
         id="path3435-3-6-7-4-6-76-4"
         d="m 516.63091,489.40134 -16.0448,24.32633 c 2.16973,0.52374 4.515,1.05275 6.49719,1.53123 0.11135,-0.44111 7.30425,-11.42123 15.28363,-23.40709 26.15749,-39.29127 29.35461,-45.84495 25.47601,-46.7812 -1.68939,-0.4078 -21.71323,29.92913 -31.21204,44.33076 z"
         style="fill:#000000" />
      <circle
         r="6.1884718"
         cy="521.16699"
         cx="528.45721"
         id="path3471-0-5-9-3-1"
         style="fill:#ffffff;fill-opacity:1;fill-rule:evenodd;stroke:#000000;stroke-width:0.30000001;stroke-linecap:butt;stroke-linejoin:miter;stroke-miterlimit:4;stroke-dasharray:none;stroke-opacity:1" />
      <path
         sodipodi:nodetypes="sccsss"
         inkscape:connector-curvature="0"
         id="path3435-3-6-3-2-9-03-3-1-8"
         d="m 516.63122,552.83629 -16.0448,-24.32631 c 2.16973,-0.52374 4.515,-1.05275 6.49719,-1.53123 0.11135,0.44111 7.30425,11.42123 15.28363,23.40707 26.15749,39.29127 29.35461,45.84495 25.47601,46.7812 -1.68939,0.4078 -21.71323,-29.92913 -31.21204,-44.33076 z"
         style="fill:#000000" />
      <path
         sodipodi:nodetypes="sccsss"
         inkscape:connector-curvature="0"
         id="path3435-3-6-7-3-6-7-7-5"
         d="m 578.23806,490.2942 -16.0448,24.32633 c 2.16973,0.52374 4.515,1.05275 6.49719,1.53123 0.11135,-0.44111 7.30425,-11.42123 15.28363,-23.40709 26.15749,-39.29127 29.35461,-45.84495 25.47601,-46.7812 -1.68939,-0.4078 -21.71323,29.92913 -31.21204,44.33076 z"
         style="fill:#000000" />
      <circle
         r="6.1884718"
         cy="521.16699"
         cx="590.60004"
         id="path3471-0-6-1-4-5-9"
         style="fill:#ffffff;fill-opacity:1;fill-rule:evenodd;stroke:#000000;stroke-width:0.30000001;stroke-linecap:butt;stroke-linejoin:miter;stroke-miterlimit:4;stroke-dasharray:none;stroke-opacity:1" />
      <path
         sodipodi:nodetypes="sccsss"
         inkscape:connector-curvature="0"
         id="path3435-3-6-3-2-9-0-0-5-9-7"
         d="m 578.77408,552.83628 -16.0448,-24.3263 c 2.16973,-0.52374 4.515,-1.05275 6.49719,-1.53123 0.11135,0.44111 7.30425,11.42123 15.28363,23.40706 26.15749,39.29127 29.35461,45.84495 25.47601,46.7812 -1.68939,0.4078 -21.71323,-29.92913 -31.21204,-44.33076 z"
         style="fill:#000000" />
    </g>
    <g
       id="g5725"
       transform="matrix(0.75328735,0,0,0.75328735,-550.20698,597.264)">
      <path
         sodipodi:nodetypes="zczcz"
         inkscape:connector-curvature="0"
         id="path3435-2-8-8-0"
         d="m 1086.6453,520.73746 c -281.699,0 -316.91218,-9.62859 -316.91218,-9.62859 0,0 34.89807,-9.72625 316.75468,-9.72625 281.8565,0 338.7081,9.3782 338.7081,9.3782 0,0 -56.8516,9.97664 -338.5506,9.97664 z"
         style="fill:#000000" />
      <path
         sodipodi:nodetypes="sccsss"
         inkscape:connector-curvature="0"
         id="path3435-3-6-7-4-1-3"
         d="m 900.52123,479.92807 -16.0448,24.32633 c 2.16973,0.52374 4.515,1.05275 6.49719,1.53123 0.11135,-0.44111 7.30425,-11.42123 15.28363,-23.40709 26.15749,-39.29127 29.35461,-45.84495 25.47601,-46.7812 -1.68939,-0.4078 -21.71323,29.92913 -31.21204,44.33076 z"
         style="fill:#000000" />
      <circle
         r="6.1884718"
         cy="510.80981"
         cx="912.6001"
         id="path3471-0-5-0-8"
         style="fill:#ffffff;fill-opacity:1;fill-rule:evenodd;stroke:#000000;stroke-width:0.30000001;stroke-linecap:butt;stroke-linejoin:miter;stroke-miterlimit:4;stroke-dasharray:none;stroke-opacity:1" />
      <circle
         r="6.1884718"
         cy="510.80981"
         cx="974.74292"
         id="path3471-0-6-1-44-1"
         style="fill:#ffffff;fill-opacity:1;fill-rule:evenodd;stroke:#000000;stroke-width:0.30000001;stroke-linecap:butt;stroke-linejoin:miter;stroke-miterlimit:4;stroke-dasharray:none;stroke-opacity:1" />
      <path
         sodipodi:nodetypes="sccsss"
         inkscape:connector-curvature="0"
         id="path3435-3-6-3-2-9-0-0-4-8"
         d="m 962.91694,542.47914 -16.0448,-24.32631 c 2.16973,-0.52374 4.515,-1.05275 6.49719,-1.53123 0.11135,0.44111 7.30425,11.42123 15.28363,23.40707 26.15749,39.29127 29.35461,45.84495 25.47601,46.7812 -1.68939,0.4078 -21.71323,-29.92913 -31.21204,-44.33076 z"
         style="fill:#000000" />
      <path
         sodipodi:nodetypes="sccsss"
         inkscape:connector-curvature="0"
         id="path3435-3-6-7-4-6-76-9"
         d="m 1020.7738,478.68705 -16.0448,24.32633 c 2.1697,0.52374 4.515,1.05275 6.4972,1.53123 0.1113,-0.44111 7.3042,-11.42123 15.2836,-23.40709 26.1575,-39.29127 29.3546,-45.84495 25.476,-46.7812 -1.6894,-0.4078 -21.7132,29.92913 -31.212,44.33076 z"
         style="fill:#000000" />
      <circle
         r="6.1884718"
         cy="510.4527"
         cx="1032.6"
         id="path3471-0-5-9-3-6"
         style="fill:#ffffff;fill-opacity:1;fill-rule:evenodd;stroke:#000000;stroke-width:0.30000001;stroke-linecap:butt;stroke-linejoin:miter;stroke-miterlimit:4;stroke-dasharray:none;stroke-opacity:1" />
      <circle
         r="6.1884718"
         cy="510.4527"
         cx="1094.7428"
         id="path3471-0-6-1-4-5-3"
         style="fill:#ffffff;fill-opacity:1;fill-rule:evenodd;stroke:#000000;stroke-width:0.30000001;stroke-linecap:butt;stroke-linejoin:miter;stroke-miterlimit:4;stroke-dasharray:none;stroke-opacity:1" />
      <path
         sodipodi:nodetypes="sccsss"
         inkscape:connector-curvature="0"
         id="path3435-3-6-3-2-9-0-0-5-9-3"
         d="m 1082.917,542.12199 -16.0448,-24.3263 c 2.1697,-0.52374 4.515,-1.05275 6.4972,-1.53123 0.1113,0.44111 7.3042,11.42123 15.2836,23.40706 26.1575,39.29127 29.3546,45.84495 25.476,46.7812 -1.6894,0.4078 -21.7132,-29.92913 -31.212,-44.33076 z"
         style="fill:#000000" />
      <circle
         style="fill:#ffe32f;fill-opacity:1;fill-rule:evenodd;stroke:#000000;stroke-width:0.2282842;stroke-linecap:butt;stroke-linejoin:miter;stroke-miterlimit:4;stroke-dasharray:none;stroke-opacity:1"
         id="path3471-0-1-7-28-9-6-6-8"
         cx="852.31085"
         cy="511.53748"
         r="4.7091007" />
      <path
         sodipodi:nodetypes="sccsss"
         inkscape:connector-curvature="0"
         id="path3435-3-6-7-4-1-2-6"
         d="m 1138.7738,479.04419 -16.0448,24.32633 c 2.1697,0.52374 4.515,1.05275 6.4972,1.53123 0.1113,-0.44111 7.3042,-11.42123 15.2836,-23.40709 26.1575,-39.29127 29.3546,-45.84495 25.476,-46.7812 -1.6894,-0.4078 -21.7132,29.92913 -31.212,44.33076 z"
         style="fill:#000000" />
      <circle
         r="6.1884718"
         cy="510.80981"
         cx="1150.6"
         id="path3471-0-5-0-1-0"
         style="fill:#ffffff;fill-opacity:1;fill-rule:evenodd;stroke:#000000;stroke-width:0.30000001;stroke-linecap:butt;stroke-linejoin:miter;stroke-miterlimit:4;stroke-dasharray:none;stroke-opacity:1" />
      <circle
         r="6.1884718"
         cy="510.80981"
         cx="1212.7428"
         id="path3471-0-6-1-44-5-8"
         style="fill:#ffffff;fill-opacity:1;fill-rule:evenodd;stroke:#000000;stroke-width:0.30000001;stroke-linecap:butt;stroke-linejoin:miter;stroke-miterlimit:4;stroke-dasharray:none;stroke-opacity:1" />
      <path
         sodipodi:nodetypes="sccsss"
         inkscape:connector-curvature="0"
         id="path3435-3-6-3-2-9-0-0-4-7-8"
         d="m 1200.917,542.47913 -16.0448,-24.3263 c 2.1697,-0.52374 4.515,-1.05275 6.4972,-1.53123 0.1113,0.44111 7.3042,11.42123 15.2836,23.40706 26.1575,39.29127 29.3546,45.84495 25.476,46.7812 -1.6894,0.4078 -21.7132,-29.92913 -31.212,-44.33076 z"
         style="fill:#000000" />
      <path
         sodipodi:nodetypes="sccsss"
         inkscape:connector-curvature="0"
         id="path3435-3-6-7-4-6-76-4-9"
         d="m 1258.7738,478.68705 -16.0448,24.32633 c 2.1697,0.52374 4.515,1.05275 6.4972,1.53123 0.1113,-0.44111 7.3042,-11.42123 15.2836,-23.40709 26.1575,-39.29127 29.3546,-45.84495 25.476,-46.7812 -1.6894,-0.4078 -21.7132,29.92913 -31.212,44.33076 z"
         style="fill:#000000" />
      <circle
         r="6.1884718"
         cy="510.4527"
         cx="1270.6"
         id="path3471-0-5-9-3-1-7"
         style="fill:#ffffff;fill-opacity:1;fill-rule:evenodd;stroke:#000000;stroke-width:0.30000001;stroke-linecap:butt;stroke-linejoin:miter;stroke-miterlimit:4;stroke-dasharray:none;stroke-opacity:1" />
      <circle
         r="6.1884718"
         cy="510.4527"
         cx="1332.7429"
         id="path3471-0-6-1-4-5-9-4"
         style="fill:#ffffff;fill-opacity:1;fill-rule:evenodd;stroke:#000000;stroke-width:0.30000001;stroke-linecap:butt;stroke-linejoin:miter;stroke-miterlimit:4;stroke-dasharray:none;stroke-opacity:1" />
      <path
         sodipodi:nodetypes="sccsss"
         inkscape:connector-curvature="0"
         id="path3435-3-6-3-2-9-0-0-5-9-7-3"
         d="m 1320.917,542.12198 -16.0448,-24.32629 c 2.1697,-0.52374 4.515,-1.05275 6.4972,-1.53123 0.1113,0.44111 7.3042,11.42123 15.2836,23.40705 26.1575,39.29127 29.3546,45.84495 25.476,46.7812 -1.6894,0.4078 -21.7132,-29.92913 -31.212,-44.33076 z"
         style="fill:#000000" />
    </g>
  </g>
</svg>
